<svg xmlns="http://www.w3.org/2000/svg" viewBox="0 0 358 117" height="117" width="358"><path d="M5.11 79.06H0v-1.845h12.442v1.844H7.305v14.96H5.11V79.06m17.905 7.08h-6.532v6.06h7.28v1.82h-9.45V77.214h9.076v1.82h-6.91v5.31h6.53v1.795m12.77 7.88l-2.15-3.72c-.88-1.42-1.43-2.35-1.95-3.32h-.05c-.48.97-.95 1.87-1.82 3.34l-2.02 3.69H25.3l5.136-8.5L25.5 77.2h2.52l2.22 3.94c.625 1.096 1.1 1.944 1.548 2.84h.075c.473-.996.897-1.77 1.52-2.84l2.294-3.94h2.492l-5.11 8.18 5.23 8.63h-2.51m7.2-16.807v7.03h8.13v-7.03h2.19v16.81h-2.19v-7.88h-8.13v7.88h-2.17v-16.8h2.17m15.41 8.5c0 3.59 1.94 6.808 5.36 6.808 3.44 0 5.38-3.16 5.38-6.98-.01-3.34-1.75-6.83-5.37-6.83-3.59 0-5.39 3.32-5.39 7.01zm13.04-.273c0 5.786-3.52 8.853-7.81 8.853-4.44 0-7.56-3.44-7.56-8.528 0-5.336 3.31-8.827 7.8-8.827 4.59 0 7.55 3.51 7.55 8.5m13.76-8.23v16.81H83V79.03h-5.56v5.086c0 3.64-.15 7.704-2.52 9.3-.62.4-1.594.798-2.566.798l-.273-1.75c.68-.127 1.37-.526 1.77-.9 1.35-1.32 1.47-4.588 1.47-7.28v-7.08h9.88m5.08 8.5c0 3.59 1.95 6.808 5.36 6.808 3.44 0 5.39-3.166 5.39-6.98 0-3.34-1.75-6.833-5.36-6.833-3.59 0-5.39 3.31-5.39 7zm13.04-.273c0 5.79-3.51 8.86-7.8 8.86-4.43 0-7.55-3.44-7.55-8.53 0-5.33 3.32-8.82 7.81-8.82 4.59 0 7.56 3.52 7.56 8.5m11.75-8.22v1.82h-6.75v14.99h-2.17v-16.8h8.92m3.92 0v7.08c0 2.67-.05 4.87-.2 7.11l.05.03c.84-1.74 1.89-3.56 3.11-5.56l5.44-8.65h2.17v16.8h-2.04v-7.16c0-2.71.02-4.71.2-6.83l-.08-.02c-.82 1.85-1.97 3.79-3.11 5.66l-5.26 8.35h-2.32V77.21H119m16.41 0v7.08c0 2.67-.05 4.863-.2 7.108l.05.026c.846-1.746 1.894-3.566 3.115-5.56l5.436-8.652h2.17V94.02h-2.04v-7.157c0-2.717.03-4.712.2-6.83l-.07-.027c-.82 1.846-1.97 3.79-3.11 5.66l-5.26 8.354h-2.32V77.21h2.05m28.58 0v1.82h-6.76v14.99h-2.17V77.214H164m2.32 8.502c0 3.59 1.945 6.807 5.36 6.807 3.44 0 5.386-3.166 5.386-6.98 0-3.342-1.742-6.833-5.36-6.833-3.59 0-5.383 3.316-5.383 7.006zm13.04-.274c0 5.785-3.515 8.852-7.804 8.852-4.435 0-7.552-3.44-7.552-8.528 0-5.336 3.32-8.827 7.807-8.827 4.59 0 7.56 3.51 7.56 8.5m14.56 8.03c-.79.4-2.39.79-4.44.79-4.74 0-8.3-2.99-8.3-8.5 0-5.26 3.57-8.83 8.78-8.83 2.1 0 3.42.45 3.99.74l-.52 1.77c-.82-.4-1.99-.7-3.39-.7-3.94 0-6.56 2.52-6.56 6.93 0 4.11 2.37 6.75 6.46 6.75 1.32 0 2.67-.27 3.54-.7l.45 1.72m6.79-14.41h-5.11V77.2h12.45v1.845h-5.14v14.96h-2.19V79.06m17.9 7.08h-6.54v6.06h7.28v1.82h-9.45V77.214H219v1.82h-6.9v5.31h6.53v1.795m15.71-8.93v16.81h-2.17V79.03h-7.8v14.99h-2.17V77.214h12.142m5.963 8.303c.472.125 1.07.174 1.793.174 2.62 0 4.214-1.27 4.214-3.58 0-2.22-1.57-3.29-3.964-3.29-.947 0-1.67.08-2.044.18v6.54zm-2.17-8.103c1.045-.175 2.417-.324 4.163-.324 2.144 0 3.715.5 4.71 1.396.925.798 1.47 2.02 1.47 3.515 0 1.53-.45 2.72-1.295 3.6-1.14 1.22-3.012 1.85-5.13 1.85-.648 0-1.246-.02-1.745-.15v6.73h-2.17V77.42m15.31-.198v7.08c0 2.67-.05 4.86-.2 7.107l.05.02c.85-1.75 1.9-3.57 3.12-5.56l5.436-8.66H264v16.8h-2.047v-7.15c0-2.72.028-4.71.2-6.83l-.073-.03c-.82 1.84-1.97 3.79-3.11 5.66l-5.26 8.35h-2.32v-16.8h2.05m16.41 0v7.08c0 2.67-.05 4.86-.2 7.1l.05.02c.848-1.75 1.897-3.57 3.118-5.56l5.43-8.65h2.17v16.81h-2.04v-7.16c0-2.72.025-4.72.2-6.83l-.076-.03c-.822 1.84-1.97 3.79-3.115 5.66l-5.26 8.35h-2.32V77.2h2.044m28.53 9.423c-.13-2.343-.28-5.16-.25-7.256h-.07c-.57 1.973-1.27 4.066-2.12 6.385l-2.96 8.153h-1.64l-2.72-8.007c-.8-2.37-1.47-4.54-1.94-6.535h-.05c-.05 2.096-.17 4.914-.32 7.432l-.45 7.203h-2.07l1.17-16.806h2.77l2.87 8.12c.7 2.07 1.27 3.91 1.7 5.66h.08c.43-1.7 1.03-3.54 1.77-5.66l3-8.13h2.77l1.03 16.8h-2.12l-.42-7.38M316 93.45c-.79.4-2.39.792-4.44.792-4.73 0-8.3-2.99-8.3-8.5 0-5.26 3.57-8.83 8.78-8.83 2.09 0 3.417.45 3.99.748l-.523 1.77c-.82-.397-1.994-.696-3.39-.696-3.94 0-6.56 2.52-6.56 6.93 0 4.12 2.37 6.76 6.46 6.76 1.32 0 2.67-.27 3.54-.696l.45 1.72m6.785-14.41h-5.112V77.2h12.45v1.844h-5.135v14.96h-2.19V79.06m11.37 13.314c.424.074 1.05.1 1.82.1 2.245 0 4.315-.823 4.315-3.267 0-2.293-1.97-3.24-4.34-3.24h-1.796v6.407zm0-8.054h1.97c2.294 0 3.64-1.197 3.64-2.818 0-1.97-1.495-2.742-3.69-2.742-.998 0-1.57.075-1.92.15v5.41zM332 77.438c.95-.2 2.444-.348 3.965-.348 2.17 0 3.564.374 4.61 1.22.874.65 1.396 1.647 1.396 2.97 0 1.62-1.07 3.04-2.84 3.688v.05c1.6.4 3.47 1.72 3.47 4.215 0 1.446-.57 2.543-1.42 3.365-1.17 1.073-3.07 1.572-5.81 1.572-1.49 0-2.64-.1-3.36-.2V77.438m21.75 9.602l-1.65-4.84c-.37-1.096-.62-2.093-.87-3.066h-.05c-.25.997-.52 2.02-.84 3.042l-1.65 4.864h5.06zm-5.51 1.694l-1.75 5.285h-2.24l5.71-16.81h2.62l5.74 16.8H356l-1.796-5.29h-5.96m-262.35 17.3v4.58h5.298v-4.58h1.43v10.95h-1.43v-5.14h-5.31v5.13h-1.42v-10.95h1.414m10.04 5.54c0 2.34 1.26 4.43 3.49 4.43 2.24 0 3.51-2.07 3.51-4.55 0-2.18-1.14-4.46-3.5-4.46-2.34 0-3.51 2.16-3.51 4.56zm8.5-.18c0 3.77-2.29 5.77-5.09 5.77-2.9 0-4.93-2.24-4.93-5.56 0-3.48 2.16-5.76 5.08-5.76 2.99 0 4.926 2.29 4.926 5.54m1.64 3.87c.633.39 1.56.71 2.533.71 1.448 0 2.293-.77 2.293-1.87 0-1.03-.59-1.61-2.067-2.18-1.79-.64-2.89-1.56-2.89-3.11 0-1.71 1.42-2.98 3.54-2.98 1.12 0 1.94.26 2.43.53l-.39 1.15c-.35-.19-1.09-.52-2.08-.52-1.49 0-2.06.9-2.06 1.64 0 1.03.67 1.53 2.18 2.12 1.86.72 2.8 1.61 2.8 3.22 0 1.69-1.25 3.16-3.83 3.16-1.05 0-2.21-.31-2.79-.7l.36-1.18m9.63-3.82c.31.08.7.11 1.17.11 1.71 0 2.75-.83 2.75-2.35 0-1.45-1.02-2.15-2.58-2.15-.62 0-1.09.05-1.33.11v4.26zm-1.41-5.28c.68-.12 1.58-.21 2.71-.21 1.4 0 2.42.32 3.07.91.6.52.96 1.31.96 2.29 0 .99-.29 1.77-.84 2.34-.75.79-1.97 1.2-3.35 1.2-.42 0-.81-.02-1.14-.1v4.38h-1.41V106.1m8.65 10.82h1.417V106h-1.41v10.95zm5.96-9.757h-3.33V106h8.11v1.2h-3.35v9.753h-1.43v-9.75m10.15 5.2l-1.07-3.15c-.25-.717-.41-1.367-.57-2h-.035c-.16.65-.34 1.316-.55 1.98l-1.07 3.17h3.3zm-3.59 1.106l-1.132 3.45h-1.46l3.72-10.96h1.71l3.73 10.95h-1.51l-1.17-3.45h-3.883m8.175-7.51h1.4v9.76h4.68v1.18h-6.1V106m7.67 10.95h1.41v-10.94h-1.42v10.953zm5.96-9.75h-3.34V106h8.1v1.2h-3.35v9.753h-1.43v-9.75m8.89 9.75v-4.65L162.65 106h1.61l1.54 3.03c.42.83.75 1.5 1.09 2.26h.03c.31-.71.68-1.43 1.1-2.25l1.578-3.02h1.61l-3.675 6.29v4.666h-1.42m11.21-9.75h-3.33v-1.2h8.11v1.2h-3.35v9.755h-1.43v-9.75m11.67 4.62h-4.26v3.95h4.75v1.19h-6.16v-10.95h5.915v1.18h-4.5v3.46h4.256v1.17m9.98 4.78c-.52.26-1.56.52-2.89.52-3.08 0-5.41-1.95-5.41-5.54 0-3.43 2.33-5.76 5.72-5.76 1.37 0 2.23.29 2.6.49l-.34 1.15c-.54-.26-1.3-.45-2.21-.45-2.562 0-4.27 1.64-4.27 4.52 0 2.68 1.54 4.41 4.21 4.41.86 0 1.734-.18 2.3-.46l.29 1.12m3.186-10.6v4.58h5.297V106h1.43v10.95h-1.43v-5.14h-5.295v5.13h-1.415V106h1.417m9.18 10.95V106h1.54l3.51 5.54c.81 1.284 1.45 2.44 1.97 3.56l.03-.016c-.13-1.46-.16-2.795-.16-4.5V106h1.33v10.953h-1.43l-3.48-5.56c-.764-1.22-1.5-2.47-2.05-3.657l-.05.016c.08 1.38.117 2.7.117 4.52v4.68h-1.33m11.55-5.415c0 2.34 1.27 4.436 3.5 4.436 2.25 0 3.51-2.065 3.51-4.55 0-2.18-1.13-4.453-3.49-4.453-2.34 0-3.51 2.16-3.51 4.57zm8.5-.18c0 3.77-2.29 5.77-5.08 5.77-2.89 0-4.92-2.24-4.92-5.558 0-3.48 2.17-5.75 5.09-5.75 2.99 0 4.92 2.29 4.92 5.54m1.83-5.36h1.42v9.76h4.68v1.18h-6.09V106m7.9 5.54c0 2.34 1.27 4.44 3.5 4.44 2.25 0 3.51-2.065 3.51-4.55 0-2.18-1.13-4.453-3.49-4.453-2.34 0-3.51 2.16-3.51 4.567zm8.5-.18c0 3.775-2.29 5.77-5.09 5.77-2.89 0-4.92-2.24-4.92-5.554 0-3.48 2.16-5.754 5.09-5.754 2.99 0 4.93 2.29 4.93 5.54m10.17 5.104c-.634.23-1.886.605-3.364.605-1.653 0-3.02-.42-4.09-1.45-.945-.91-1.53-2.37-1.53-4.08.017-3.27 2.26-5.66 5.93-5.66 1.27 0 2.26.28 2.73.51l-.34 1.16c-.584-.26-1.315-.47-2.42-.47-2.666 0-4.404 1.66-4.404 4.4 0 2.78 1.68 4.42 4.23 4.42.93 0 1.56-.13 1.89-.29v-3.26h-2.23v-1.14h3.61v5.26m2.16.49h1.416V106h-1.413v10.95zm9.56-5.13h-4.26v3.95H272v1.19h-6.16V106h5.91v1.186h-4.5v3.46h4.256v1.17m2.124 3.413c.63.39 1.56.71 2.53.71 1.45 0 2.298-.77 2.298-1.87 0-1.03-.585-1.61-2.065-2.18-1.79-.64-2.893-1.56-2.893-3.11 0-1.71 1.413-2.98 3.543-2.98 1.12 0 1.933.26 2.42.53l-.39 1.15c-.357-.19-1.09-.52-2.08-.52-1.495 0-2.064.9-2.064 1.64 0 1.03.66 1.53 2.17 2.11 1.85.71 2.79 1.61 2.79 3.22 0 1.69-1.25 3.15-3.84 3.15-1.06 0-2.21-.31-2.8-.7l.35-1.19M174.67.16l39.164.07-19.644 33.88L174.672.16m-24.41 33.727l19.62-33.893 19.54 33.94-39.16-.047M208.6 67.133h-39.15L149.876 35.72h39.15L208.6 67.132" fill="#ffffff"/></svg>
