<svg xmlns="http://www.w3.org/2000/svg" width="149" height="20" viewBox="0 0 149 20"><path fill="#FFF" d="M39.234.957h-10.02c-.463 0-.708.366-.708.72v1.92c0 .386.354.69.722.69h2.96V15.32s.267.71.686.71h2.68c.405 0 .707-.292.707-.687V4.288h3s.68-.287.68-.697V1.66c0-.43-.32-.703-.69-.703zm45.29 0h-3.41c-.404 0-.605.275-.673.515l-2.61 9.3-2.61-9.32c-.07-.233-.29-.494-.68-.494h-3.42c-.31 0-.54.246-.42.607.17.495 4.48 13.71 4.57 13.994.11.32.4.47.67.47h3.78c.38 0 .58-.24.66-.47.07-.2 3.72-11.34 4.6-14.03.107-.31-.13-.58-.43-.58zM24.154 7.02c-1.36-.62-2.193-1.048-2.503-1.28-.3-.236-.46-.503-.46-.8 0-.275.13-.507.37-.693.24-.187.63-.28 1.16-.28.86 0 1.86.23 2.99.682.37.14.78.03.95-.39l.72-1.82c.17-.44-.07-.81-.4-.94-1.4-.54-2.78-.81-4.14-.81-1.77 0-3.17.39-4.18 1.17-1.01.78-1.52 1.87-1.52 3.26 0 .74.12 1.39.36 1.94.24.54.61 1.03 1.1 1.45.5.42 1.24.85 2.23 1.31 1.09.48 1.76.81 2.02.97.25.16.436.31.55.47s.17.34.17.54c0 .33-.14.6-.42.81-.29.21-.73.32-1.34.32-.705 0-1.47-.15-2.31-.37-.25-.07-.525-.16-.79-.26-.275-.11-.72-.08-.92.41l-.73 1.82c-.195.49.098.81.38.92.604.25 1.254.47 1.754.573.68.144 1.525.214 2.534.214 1.21 0 2.264-.204 3.16-.607.898-.402 1.586-.97 2.06-1.7.48-.73.717-1.56.717-2.5 0-1.02-.257-1.87-.76-2.543-.51-.68-1.42-1.31-2.726-1.897zM8.524.685c-4.31 0-7.8 3.49-7.8 7.793 0 4.306 3.49 7.795 7.796 7.795 4.31 0 7.804-3.49 7.804-7.795S12.83.684 8.522.684zm0 11.547c-2.07 0-3.757-1.682-3.757-3.753 0-2.07 1.685-3.76 3.755-3.76s3.758 1.69 3.758 3.76-1.686 3.75-3.757 3.75zm41.634-2.125c2.536-.558 3.496-2.333 3.496-4.547 0-2.97-1.948-4.602-6.045-4.602h-5.56c-.41 0-.7.312-.7.695v13.704c0 .374.31.676.69.676h2.56s.7-.305.7-.655v-4.83h1.04s3.46 5.006 3.6 5.193.28.3.58.3h2.89c.43 0 .54-.46.37-.69l-3.65-5.23zm-2.81-2.533h-2.034V4.04h2.205c1.39 0 2.19.71 2.19 1.654 0 1.257-.94 1.878-2.36 1.878zm83.18 2.533c2.535-.558 3.496-2.333 3.496-4.547 0-2.97-1.948-4.602-6.046-4.602h-5.56c-.403 0-.69.312-.69.695v13.704c0 .374.31.676.694.676h2.555c.382 0 .702-.305.702-.655v-4.83h1.04s3.46 5.006 3.6 5.193c.13.19.28.3.58.3h2.89c.43 0 .53-.46.37-.69l-3.65-5.23zm-2.81-2.533h-2.035V4.04h2.205c1.395 0 2.188.71 2.188 1.654 0 1.257-.937 1.878-2.36 1.878zm-9.143 4.75c-1.095 0-1.98.887-1.98 1.98s.886 1.983 1.98 1.983 1.98-.888 1.98-1.982-.885-1.982-1.98-1.982zM147.567.956h-2.706c-.39 0-.68.354-.68.704v8.12c0 1.065-.2 1.84-.6 2.32-.4.482-.98.724-1.76.724s-1.36-.24-1.76-.723c-.4-.48-.6-1.25-.6-2.32V1.66s-.29-.703-.68-.703h-2.7c-.43 0-.7.354-.7.725V10.1c0 1.975.56 3.49 1.66 4.54 1.11 1.054 2.75 1.58 4.81 1.58 2.056 0 3.7-.526 4.805-1.58 1.1-1.05 1.654-2.565 1.654-4.54V1.682c.003-.37-.276-.725-.704-.725zM111.3 7.71s4.2-5.957 4.308-6.117c.108-.16.055-.636-.374-.636h-3.272c-.225 0-.426.105-.564.297-.14.192-3.003 4.39-3.003 4.39l-1.206.727V1.66c0-.39-.32-.703-.7-.703h-2.69c-.4 0-.71.286-.71.72V15.33c0 .444.33.7.71.7h2.68c.38 0 .7-.292.7-.668V10.99l1.2-.722 2.8 5.426s.34.337.6.337h3.43c.4 0 .49-.42.38-.63l-4.32-7.68zM62.807.685c-4.306 0-7.795 3.49-7.795 7.794 0 .95.173 1.87.488 2.72.106.28.377.51.78.45.938-.14 2.77-.41 3.056-.46.39-.07.45-.49.318-.69-.38-.59-.603-1.29-.603-2.04 0-2.07 1.69-3.76 3.76-3.76s3.76 1.69 3.76 3.76c0 1.9-1.42 3.47-3.25 3.72 0 0-5.45.8-5.89.87-.42.06-.48.54-.21.82 1.42 1.46 5.61 5.68 5.61 5.68s4.17-4.2 5.59-5.66c1.37-1.406 2.22-3.325 2.22-5.44 0-4.307-3.49-7.796-7.8-7.796zm30.385 0c-4.307 0-7.796 3.49-7.796 7.794 0 4.3 3.49 7.79 7.796 7.79 4.31 0 7.802-3.49 7.802-7.8S97.5.68 93.192.68zm0 11.547c-2.072 0-3.756-1.682-3.756-3.753 0-2.07 1.684-3.76 3.756-3.76 2.07 0 3.756 1.68 3.756 3.75 0 2.07-1.686 3.75-3.756 3.75z"/></svg>
